<svg xmlns="http://www.w3.org/2000/svg" viewBox="0 0 720 284" width="720" height="284" role="img" aria-label="snyvi's six faces: rest, glad, wink, love, whoa, oops">
<!-- Drawn by bench/faces.mjs from FACES in ui/app.js. Edit the faces there, not here. -->
<style>text{font:500 12px/1 system-ui,sans-serif;text-anchor:middle}</style>
<rect x="0" y="0" width="720" height="142" fill="#faf9f6"/>
<g transform="translate(44 24)"><g transform="scale(2.25)"><rect fill="#8c0f26" x="14" y="0.5" width="4" height="5" rx="2"/><rect fill="#d9203b" x="1" y="4" width="30" height="27" rx="9"/><ellipse fill="#38060f" cx="11" cy="16.5" rx="2.6" ry="3.3"/><ellipse fill="#38060f" cx="21" cy="16.5" rx="2.6" ry="3.3"/><path fill="none" stroke="#38060f" stroke-width="2.2" stroke-linecap="round" d="M13.5 23q2.5 2.2 5 0"/><ellipse fill="#f0607e" cx="7.4" cy="21.8" rx="2.4" ry="1.5"/><ellipse fill="#f0607e" cx="24.6" cy="21.8" rx="2.4" ry="1.5"/><circle fill="#fff" cx="11.9" cy="15.2" r="1"/><circle fill="#fff" cx="21.9" cy="15.2" r="1"/></g></g>
<text x="80" y="114" fill="#6b6660">rest</text>
<g transform="translate(156 24)"><g transform="scale(2.25)"><rect fill="#8c0f26" x="14" y="0.5" width="4" height="5" rx="2"/><rect fill="#d9203b" x="1" y="4" width="30" height="27" rx="9"/><path fill="none" stroke="#38060f" stroke-width="2.2" stroke-linecap="round" d="M8.6 17.8q2.4-3 4.8 0M18.6 17.8q2.4-3 4.8 0"/><path fill="#38060f" d="M13 22.4q3 4 6 0z"/><ellipse fill="#f0607e" cx="7.4" cy="21.8" rx="2.4" ry="1.5"/><ellipse fill="#f0607e" cx="24.6" cy="21.8" rx="2.4" ry="1.5"/></g></g>
<text x="192" y="114" fill="#6b6660">glad</text>
<g transform="translate(268 24)"><g transform="scale(2.25)"><rect fill="#8c0f26" x="14" y="0.5" width="4" height="5" rx="2"/><rect fill="#d9203b" x="1" y="4" width="30" height="27" rx="9"/><path fill="none" stroke="#38060f" stroke-width="2.2" stroke-linecap="round" d="M8.6 17.8q2.4-3 4.8 0"/><ellipse fill="#38060f" cx="21" cy="16.5" rx="2.6" ry="3.3"/><path fill="none" stroke="#38060f" stroke-width="2.2" stroke-linecap="round" d="M13.5 23q2.5 2.2 5 0"/><ellipse fill="#f0607e" cx="7.4" cy="21.8" rx="2.4" ry="1.5"/><ellipse fill="#f0607e" cx="24.6" cy="21.8" rx="2.4" ry="1.5"/><circle fill="#fff" cx="21.9" cy="15.2" r="1"/></g></g>
<text x="304" y="114" fill="#6b6660">wink</text>
<g transform="translate(380 24)"><g transform="scale(2.25)"><rect fill="#8c0f26" x="14" y="0.5" width="4" height="5" rx="2"/><rect fill="#d9203b" x="1" y="4" width="30" height="27" rx="9"/><path fill="#f0607e" transform="translate(11 16.5) scale(.85)" d="M0 3.2c-3.4-2-4.3-4.4-2.6-5.6 1-.7 2.1-.1 2.6.8.5-.9 1.6-1.5 2.6-.8 1.7 1.2.8 3.6-2.6 5.6z"/><path fill="#f0607e" transform="translate(21 16.5) scale(.85)" d="M0 3.2c-3.4-2-4.3-4.4-2.6-5.6 1-.7 2.1-.1 2.6.8.5-.9 1.6-1.5 2.6-.8 1.7 1.2.8 3.6-2.6 5.6z"/><path fill="none" stroke="#38060f" stroke-width="2.2" stroke-linecap="round" d="M13.5 23q2.5 2.2 5 0"/><g fill="#f0607e"><path transform="translate(26 8) scale(.5)" d="M0 3.2c-3.4-2-4.3-4.4-2.6-5.6 1-.7 2.1-.1 2.6.8.5-.9 1.6-1.5 2.6-.8 1.7 1.2.8 3.6-2.6 5.6z"/></g><ellipse fill="#f0607e" cx="7.4" cy="21.8" rx="2.4" ry="1.5"/><ellipse fill="#f0607e" cx="24.6" cy="21.8" rx="2.4" ry="1.5"/></g></g>
<text x="416" y="114" fill="#6b6660">love</text>
<g transform="translate(492 24)"><g transform="scale(2.25)"><rect fill="#8c0f26" x="14" y="0.5" width="4" height="5" rx="2"/><rect fill="#d9203b" x="1" y="4" width="30" height="27" rx="9"/><ellipse fill="#38060f" cx="11" cy="16.5" rx="3.1" ry="3.94"/><ellipse fill="#38060f" cx="21" cy="16.5" rx="3.1" ry="3.94"/><ellipse fill="#38060f" cx="16" cy="23.4" rx="1.9" ry="2.2"/><ellipse fill="#f0607e" cx="7.4" cy="21.8" rx="2.4" ry="1.5"/><ellipse fill="#f0607e" cx="24.6" cy="21.8" rx="2.4" ry="1.5"/><circle fill="#fff" cx="11.9" cy="15.2" r="1"/><circle fill="#fff" cx="21.9" cy="15.2" r="1"/></g></g>
<text x="528" y="114" fill="#6b6660">whoa</text>
<g transform="translate(604 24)"><g transform="scale(2.25)"><rect fill="#8c0f26" x="14" y="0.5" width="4" height="5" rx="2"/><rect fill="#d9203b" x="1" y="4" width="30" height="27" rx="9"/><path fill="none" stroke="#38060f" stroke-width="2.2" stroke-linecap="round" d="M8.6 17q2.4 1.8 4.8 0M18.6 17q2.4 1.8 4.8 0"/><path fill="none" stroke="#38060f" stroke-width="2.2" stroke-linecap="round" d="M13.8 23.4h4.4"/><ellipse fill="#f0607e" cx="7.4" cy="21.8" rx="2.4" ry="1.5"/><ellipse fill="#f0607e" cx="24.6" cy="21.8" rx="2.4" ry="1.5"/></g></g>
<text x="640" y="114" fill="#6b6660">oops</text>
<!-- light -->
<rect x="0" y="142" width="720" height="142" fill="#15181f"/>
<g transform="translate(44 166)"><g transform="scale(2.25)"><rect fill="#8c0f26" x="14" y="0.5" width="4" height="5" rx="2"/><rect fill="#d9203b" x="1" y="4" width="30" height="27" rx="9"/><ellipse fill="#38060f" cx="11" cy="16.5" rx="2.6" ry="3.3"/><ellipse fill="#38060f" cx="21" cy="16.5" rx="2.6" ry="3.3"/><path fill="none" stroke="#38060f" stroke-width="2.2" stroke-linecap="round" d="M13.5 23q2.5 2.2 5 0"/><ellipse fill="#f0607e" cx="7.4" cy="21.8" rx="2.4" ry="1.5"/><ellipse fill="#f0607e" cx="24.6" cy="21.8" rx="2.4" ry="1.5"/><circle fill="#fff" cx="11.9" cy="15.2" r="1"/><circle fill="#fff" cx="21.9" cy="15.2" r="1"/></g></g>
<text x="80" y="256" fill="#8a8f99">rest</text>
<g transform="translate(156 166)"><g transform="scale(2.25)"><rect fill="#8c0f26" x="14" y="0.5" width="4" height="5" rx="2"/><rect fill="#d9203b" x="1" y="4" width="30" height="27" rx="9"/><path fill="none" stroke="#38060f" stroke-width="2.2" stroke-linecap="round" d="M8.6 17.8q2.4-3 4.8 0M18.6 17.8q2.4-3 4.8 0"/><path fill="#38060f" d="M13 22.4q3 4 6 0z"/><ellipse fill="#f0607e" cx="7.4" cy="21.8" rx="2.4" ry="1.5"/><ellipse fill="#f0607e" cx="24.6" cy="21.8" rx="2.4" ry="1.5"/></g></g>
<text x="192" y="256" fill="#8a8f99">glad</text>
<g transform="translate(268 166)"><g transform="scale(2.25)"><rect fill="#8c0f26" x="14" y="0.5" width="4" height="5" rx="2"/><rect fill="#d9203b" x="1" y="4" width="30" height="27" rx="9"/><path fill="none" stroke="#38060f" stroke-width="2.2" stroke-linecap="round" d="M8.6 17.8q2.4-3 4.8 0"/><ellipse fill="#38060f" cx="21" cy="16.5" rx="2.6" ry="3.3"/><path fill="none" stroke="#38060f" stroke-width="2.2" stroke-linecap="round" d="M13.5 23q2.5 2.2 5 0"/><ellipse fill="#f0607e" cx="7.4" cy="21.8" rx="2.4" ry="1.5"/><ellipse fill="#f0607e" cx="24.6" cy="21.8" rx="2.4" ry="1.5"/><circle fill="#fff" cx="21.9" cy="15.2" r="1"/></g></g>
<text x="304" y="256" fill="#8a8f99">wink</text>
<g transform="translate(380 166)"><g transform="scale(2.25)"><rect fill="#8c0f26" x="14" y="0.5" width="4" height="5" rx="2"/><rect fill="#d9203b" x="1" y="4" width="30" height="27" rx="9"/><path fill="#f0607e" transform="translate(11 16.5) scale(.85)" d="M0 3.2c-3.4-2-4.3-4.4-2.6-5.6 1-.7 2.1-.1 2.6.8.5-.9 1.6-1.5 2.6-.8 1.7 1.2.8 3.6-2.6 5.6z"/><path fill="#f0607e" transform="translate(21 16.5) scale(.85)" d="M0 3.2c-3.4-2-4.3-4.4-2.6-5.6 1-.7 2.1-.1 2.6.8.5-.9 1.6-1.5 2.6-.8 1.7 1.2.8 3.6-2.6 5.6z"/><path fill="none" stroke="#38060f" stroke-width="2.2" stroke-linecap="round" d="M13.5 23q2.5 2.2 5 0"/><g fill="#f0607e"><path transform="translate(26 8) scale(.5)" d="M0 3.2c-3.4-2-4.3-4.4-2.6-5.6 1-.7 2.1-.1 2.6.8.5-.9 1.6-1.5 2.6-.8 1.7 1.2.8 3.6-2.6 5.6z"/></g><ellipse fill="#f0607e" cx="7.4" cy="21.8" rx="2.4" ry="1.5"/><ellipse fill="#f0607e" cx="24.6" cy="21.8" rx="2.4" ry="1.5"/></g></g>
<text x="416" y="256" fill="#8a8f99">love</text>
<g transform="translate(492 166)"><g transform="scale(2.25)"><rect fill="#8c0f26" x="14" y="0.5" width="4" height="5" rx="2"/><rect fill="#d9203b" x="1" y="4" width="30" height="27" rx="9"/><ellipse fill="#38060f" cx="11" cy="16.5" rx="3.1" ry="3.94"/><ellipse fill="#38060f" cx="21" cy="16.5" rx="3.1" ry="3.94"/><ellipse fill="#38060f" cx="16" cy="23.4" rx="1.9" ry="2.2"/><ellipse fill="#f0607e" cx="7.4" cy="21.8" rx="2.4" ry="1.5"/><ellipse fill="#f0607e" cx="24.6" cy="21.8" rx="2.4" ry="1.5"/><circle fill="#fff" cx="11.9" cy="15.2" r="1"/><circle fill="#fff" cx="21.9" cy="15.2" r="1"/></g></g>
<text x="528" y="256" fill="#8a8f99">whoa</text>
<g transform="translate(604 166)"><g transform="scale(2.25)"><rect fill="#8c0f26" x="14" y="0.5" width="4" height="5" rx="2"/><rect fill="#d9203b" x="1" y="4" width="30" height="27" rx="9"/><path fill="none" stroke="#38060f" stroke-width="2.2" stroke-linecap="round" d="M8.6 17q2.4 1.8 4.8 0M18.6 17q2.4 1.8 4.8 0"/><path fill="none" stroke="#38060f" stroke-width="2.2" stroke-linecap="round" d="M13.8 23.4h4.4"/><ellipse fill="#f0607e" cx="7.4" cy="21.8" rx="2.4" ry="1.5"/><ellipse fill="#f0607e" cx="24.6" cy="21.8" rx="2.4" ry="1.5"/></g></g>
<text x="640" y="256" fill="#8a8f99">oops</text>
<!-- dark -->
</svg>
